<?xml version="1.0" encoding="UTF-8"?>
<svg width="32px" height="32px" viewBox="0 0 32 32" version="1.1" xmlns="http://www.w3.org/2000/svg" xmlns:xlink="http://www.w3.org/1999/xlink">
    <!-- Generator: Sketch Beta 47 (45292) - http://www.bohemiancoding.com/sketch -->
    <title>IconArt@SVG</title>
    <desc>Created with Sketch Beta.</desc>
    <defs></defs>
    <g id="Icon-Development" stroke="none" stroke-width="1" fill="none" fill-rule="evenodd">
        <g id="IconArt">
            <g id="Art-Icon" transform="translate(-1.000000, -1.000000)">
                <path d="M21.9411573,14.2304156 L8.22916457,4.12684205 C7.06133807,3.26633831 5.43995364,3.38847348 4.41421356,4.41421356 C3.38847348,5.43995364 3.26633831,7.06133807 4.12684205,8.22916457 L14.2304156,21.9411573 L21.9411573,14.2304156 Z" id="Path-5" stroke="#000000" stroke-width="4"></path>
                <path d="M29.9592297,30.9364649 C29.2413246,28.7851317 29.0160854,26.723385 28.9301853,23.6939752 C28.8758064,21.776215 28.8065213,20.9797584 28.564667,20.0603186 C28.2844648,18.995094 27.7767129,18.0288349 26.8992062,17.0002116 C24.1617191,14.3166855 19.7671392,14.3333658 17.0502525,17.0502525 C14.3165825,19.7839226 14.3165825,24.2160774 17.0502525,26.9497475 C19.5052538,29.4047487 23.5645144,30.6525258 29.9592297,30.9364649 Z" id="Oval-7" stroke="#000000" stroke-width="4"></path>
                <path d="M25.5,21 C25.5,21 25.5,21 25.5,21 C25,19.5 24,18 22,18 C20,18 19.5,20.5 22,21 C22.6637961,21.1327592 23.2747172,21.4770186 23.8327633,22.0327781 L23.8327701,22.0327713 C24.227145,22.4255303 24.8652432,22.4242203 25.2580022,22.0298454 C25.5268413,21.7599002 25.6204761,21.3614282 25.5,21 Z" id="Oval-8" fill="#000000"></path>
            </g>
        </g>
    </g>
</svg>