<?xml version="1.0" encoding="UTF-8"?>
<svg width="32px" height="32px" viewBox="0 0 32 32" version="1.1" xmlns="http://www.w3.org/2000/svg" xmlns:xlink="http://www.w3.org/1999/xlink">
    <!-- Generator: Sketch Beta 47 (45292) - http://www.bohemiancoding.com/sketch -->
    <title>IconMessage@SVG</title>
    <desc>Created with Sketch Beta.</desc>
    <defs></defs>
    <g id="Icon-Development" stroke="none" stroke-width="1" fill="none" fill-rule="evenodd">
        <g id="IconMessage" stroke-width="4" stroke="#070707">
            <g id="Message-Icon">
                <path d="M6,28.763932 L11.8721089,25.8278776 L12.4746177,25.9041834 C12.9773441,25.9678521 13.4864173,26 14,26 L18,26 C20.1609321,26 22.2337754,25.4298249 24.0551691,24.3628772 C25.8336927,23.3210422 27.3210422,21.8336927 28.3628772,20.0551691 C29.4298249,18.2337754 30,16.1609321 30,14 C30,11.8390679 29.4298249,9.76622464 28.3628772,7.94483086 C27.3210422,6.1663073 25.8336927,4.6789578 24.0551691,3.63712283 C22.2337754,2.57017505 20.1609321,2 18,2 L14,2 C11.8390679,2 9.76622464,2.57017505 7.94483086,3.63712283 C6.1663073,4.6789578 4.6789578,6.1663073 3.63712283,7.94483086 C2.57017505,9.76622464 2,11.8390679 2,14 C2,16.1609321 2.57017505,18.2337754 3.63712283,20.0551691 C4.1355698,20.9060713 4.73770526,21.693235 5.42848186,22.3981656 L6,22.9813942 L6,28.763932 Z" id="Combined-Shape"></path>
            </g>
        </g>
    </g>
</svg>